<?xml version="1.0" encoding="UTF-8"?>
<!DOCTYPE svg PUBLIC "-//W3C//DTD SVG 1.1//EN" "http://www.w3.org/Graphics/SVG/1.1/DTD/svg11.dtd">
<!-- Creator: CorelDRAW 2018 (64 Bit Versão de avaliação) -->
<svg xmlns="http://www.w3.org/2000/svg" xml:space="preserve" width="1920px" height="1080px" version="1.1" shape-rendering="geometricPrecision" text-rendering="geometricPrecision" image-rendering="optimizeQuality" fill-rule="evenodd" clip-rule="evenodd"
viewBox="0 0 1920 1080"
 xmlns:xlink="http://www.w3.org/1999/xlink">
 <g id="Camada_x0020_1">
  <metadata id="CorelCorpID_0Corel-Layer"/>
  <rect fill="none" width="1920" height="1080"/>
  <polygon fill="none" stroke="black" stroke-width="2.36" stroke-miterlimit="22.9256" points="741.29,148.55 770.87,150.87 770.62,172.62 740.69,169.86 "/>
  <polygon fill="none" stroke="black" stroke-width="2.36" stroke-miterlimit="22.9256" points="807.57,154.93 844.96,157.77 844.71,179.52 806.96,176.24 "/>
  <path fill="none" stroke="black" stroke-width="2.36" stroke-miterlimit="22.9256" d="M872.67 162.22c18.85,2.78 37.08,2.94 54.71,-0.02l0.56 22.33c-16.34,1.56 -35.86,2.65 -55.87,-0.28l0.6 -22.03z"/>
  <polygon fill="none" stroke="black" stroke-width="2.36" stroke-miterlimit="22.9256" points="807.05,204.67 844.44,207.51 844.19,229.26 806.44,225.98 "/>
  <polygon fill="none" stroke="black" stroke-width="2.36" stroke-miterlimit="22.9256" points="769.05,224.35 806.44,227.19 806.19,248.94 768.45,245.65 "/>
  <polygon fill="none" stroke="black" stroke-width="2.36" stroke-miterlimit="22.9256" points="807.07,306.64 844.46,309.48 844.21,331.23 806.47,327.94 "/>
  <polygon fill="none" stroke="black" stroke-width="2.36" stroke-miterlimit="22.9256" points="768.53,326.95 805.92,329.79 805.67,351.54 767.92,348.26 "/>
  <polygon fill="none" stroke="black" stroke-width="2.36" stroke-miterlimit="22.9256" points="847.18,385.81 884.57,388.64 884.32,410.39 846.57,407.11 "/>
  <polygon fill="none" stroke="black" stroke-width="2.36" stroke-miterlimit="22.9256" points="781.55,398.83 818.94,401.67 818.69,423.42 780.94,420.13 "/>
  <polygon fill="none" stroke="black" stroke-width="2.36" stroke-miterlimit="22.9256" points="823.03,428.83 860.42,431.67 860.17,453.42 822.43,450.14 "/>
  <path fill="none" stroke="black" stroke-width="2.36" stroke-miterlimit="22.9256" d="M874.95 236.44c18.85,2.78 37.08,2.94 54.71,-0.02l0.56 22.33c-16.34,1.56 -35.86,2.65 -55.87,-0.28l0.6 -22.03z"/>
  <path fill="none" stroke="black" stroke-width="2.36" stroke-miterlimit="22.9256" d="M873.39 317.17c18.84,2.78 37.08,2.94 54.71,-0.02l0.56 22.33c-16.34,1.56 -35.86,2.65 -55.87,-0.28l0.6 -22.03z"/>
  <path fill="none" stroke="black" stroke-width="2.36" stroke-miterlimit="22.9256" d="M874.17 364.31c18.85,2.77 37.08,2.93 54.71,-0.03l0.56 22.34c-16.34,1.56 -35.86,2.64 -55.87,-0.29l0.6 -22.02z"/>
  <path fill="none" stroke="black" stroke-width="2.36" stroke-miterlimit="22.9256" d="M874.17 436.18c18.85,2.78 37.08,2.94 54.71,-0.02l0.56 22.33c-16.34,1.56 -35.86,2.65 -55.87,-0.28l0.6 -22.03z"/>
  <polygon fill="none" stroke="black" stroke-width="2.36" stroke-miterlimit="22.9256" points="814.18,501.75 851.54,507.19 850.15,528.81 813.57,523.05 "/>
  <polygon fill="none" stroke="black" stroke-width="2.36" stroke-miterlimit="22.9256" points="856.06,509.26 891.9,514.48 890.51,536.1 855.19,530.54 "/>
  <polygon fill="none" stroke="black" stroke-width="2.36" stroke-miterlimit="22.9256" points="776.68,516.59 813.57,523.05 812.65,543.66 776.07,537.9 "/>
 </g>
</svg>
