<?xml version="1.0" encoding="UTF-8"?>
<!DOCTYPE svg PUBLIC "-//W3C//DTD SVG 1.1//EN" "http://www.w3.org/Graphics/SVG/1.1/DTD/svg11.dtd">
<!-- Creator: CorelDRAW 2018 (64 Bit Versão de avaliação) -->
<svg xmlns="http://www.w3.org/2000/svg" xml:space="preserve" width="1920px" height="1080px" version="1.1" shape-rendering="geometricPrecision" text-rendering="geometricPrecision" image-rendering="optimizeQuality" fill-rule="evenodd" clip-rule="evenodd"
viewBox="0 0 1920 1080"
 xmlns:xlink="http://www.w3.org/1999/xlink">
 <g id="Camada_x0020_1">
  <metadata id="CorelCorpID_0Corel-Layer"/>
  <path fill="none" stroke="black" stroke-width="0.1" stroke-miterlimit="22.9256" d="M863.27 155.63l-0.6 27.97c32.16,3.45 46.62,6.18 87.94,-4.53l-0.31 -27.03c-38.29,8.42 -55.81,7.37 -87.03,3.59z"/>
  <polygon fill="none" stroke="black" stroke-width="0.1" stroke-miterlimit="22.9256" points="1027.38,139.26 1027.14,164.96 1095.84,152.71 1095.97,126.76 "/>
  <polygon fill="none" stroke="black" stroke-width="0.1" stroke-miterlimit="22.9256" points="1118.16,121.6 1117.93,147.31 1168.97,138.2 1168.67,114.58 "/>
  <polygon fill="none" stroke="black" stroke-width="0.1" stroke-miterlimit="22.9256" points="1026.91,189.42 1026.69,213.71 1095.4,198.49 1095.5,176.92 "/>
  <polygon fill="none" stroke="black" stroke-width="0.1" stroke-miterlimit="22.9256" points="1027.69,236.81 1027.49,258.91 1096.21,242.12 1096.31,222.27 "/>
  <polygon fill="none" stroke="black" stroke-width="0.1" stroke-miterlimit="22.9256" points="1119.59,192.27 1119.38,215.15 1173.37,203.06 1172.4,181.49 "/>
  <polygon fill="none" stroke="black" stroke-width="0.1" stroke-miterlimit="22.9256" points="970.83,224.77 970.6,250.47 1027.69,236.81 1026.67,215.12 "/>
  <polygon fill="none" stroke="black" stroke-width="0.1" stroke-miterlimit="22.9256" points="950.21,282.74 950.76,309.22 1026.18,290.09 1026.31,264.15 "/>
  <path fill="none" stroke="black" stroke-width="0.1" stroke-miterlimit="22.9256" d="M864.52 315l-0.5 23.59c32.16,3.46 45.89,4 87.22,-6.71l-0.48 -22.66c-38.29,8.42 -55.02,9.57 -86.24,5.78z"/>
  <path fill="none" stroke="black" stroke-width="0.1" stroke-miterlimit="22.9256" d="M864.3 362.34l-0.51 23.91c32.17,3.45 47.44,3.17 88.77,-7.54l-0.54 -21.99c-36.36,10.26 -54.86,10.94 -87.72,5.62z"/>
  <polygon fill="none" stroke="black" stroke-width="0.1" stroke-miterlimit="22.9256" points="1119.89,286.96 1119.68,310 1170.71,296.5 1171.61,273.84 "/>
  <polygon fill="none" stroke="black" stroke-width="0.1" stroke-miterlimit="22.9256" points="1026.14,359.46 1025.97,378.92 1067.74,367.2 1067.26,347.67 "/>
  <polygon fill="none" stroke="black" stroke-width="0.1" stroke-miterlimit="22.9256" points="773.76,225.13 831.73,231.38 831.73,251.53 773.61,246.69 "/>
  <polygon fill="none" stroke="black" stroke-width="0.1" stroke-miterlimit="22.9256" points="775.64,177 830.92,182.96 830.92,203.12 775.48,198.56 "/>
  <polygon fill="none" stroke="black" stroke-width="0.1" stroke-miterlimit="22.9256" points="778.77,303.88 836.74,310.13 836.74,330.28 778.61,325.44 "/>
  <rect fill="none" width="1920" height="1080"/>
 </g>
</svg>
