<?xml version="1.0" encoding="UTF-8"?>
<!DOCTYPE svg PUBLIC "-//W3C//DTD SVG 1.1//EN" "http://www.w3.org/Graphics/SVG/1.1/DTD/svg11.dtd">
<!-- Creator: CorelDRAW 2018 (64 Bit Versão de avaliação) -->
<svg xmlns="http://www.w3.org/2000/svg" xml:space="preserve" width="1920px" height="1080px" version="1.1" shape-rendering="geometricPrecision" text-rendering="geometricPrecision" image-rendering="optimizeQuality" fill-rule="evenodd" clip-rule="evenodd"
viewBox="0 0 1920 1080"
 xmlns:xlink="http://www.w3.org/1999/xlink">
 <g id="Camada_x0020_1">
  <metadata id="CorelCorpID_0Corel-Layer"/>
  <rect fill="none" width="1920" height="1080"/>
  <polygon fill="none" stroke="black" stroke-width="2.36" stroke-miterlimit="22.9256" points="1224,979 1224,577 893,577 893,979 "/>
  <path fill="none" stroke="black" stroke-width="2.36" stroke-miterlimit="22.9256" d="M1869 599.79l-212.43 -1.05 0 -37.5 -8.79 0 0 -45.43 -56.06 0 0 -8.27 -45.71 0 0 -103.5 -102.87 0 0 -343.21 258.59 -0.52c54.89,-0.11 93.2,32.73 99.21,73.83l68.06 465.65z"/>
  <path fill="none" stroke="black" stroke-width="2.36" stroke-miterlimit="22.9256" d="M1443.14 287.64l-17.72 0 0 112.76 -91.41 0 0 109.38 -50.26 0 0 -104.69c-63.2,0 -126.39,0 -189.59,0l0 -344.26 348.98 0 0 226.81z"/>
 </g>
</svg>
