<?xml version="1.0" encoding="UTF-8"?>
<!DOCTYPE svg PUBLIC "-//W3C//DTD SVG 1.1//EN" "http://www.w3.org/Graphics/SVG/1.1/DTD/svg11.dtd">
<!-- Creator: CorelDRAW 2018 (64 Bit Versão de avaliação) -->
<svg xmlns="http://www.w3.org/2000/svg" xml:space="preserve" width="1920px" height="1080px" version="1.1" shape-rendering="geometricPrecision" text-rendering="geometricPrecision" image-rendering="optimizeQuality" fill-rule="evenodd" clip-rule="evenodd"
viewBox="0 0 1920 1080"
 xmlns:xlink="http://www.w3.org/1999/xlink">
 <g id="Camada_x0020_1">
  <metadata id="CorelCorpID_0Corel-Layer"/>
  <rect fill="none" width="1920" height="1080"/>
  <polygon fill="none" stroke="black" stroke-width="2.36" stroke-miterlimit="22.9256" points="741.29,148.55 805.87,153.37 805.62,175.12 740.69,169.86 "/>
  <polygon fill="none" stroke="black" stroke-width="2.36" stroke-miterlimit="22.9256" points="807.05,204.67 871.16,211.42 870.91,233.17 806.44,225.98 "/>
  <polygon fill="none" stroke="black" stroke-width="2.36" stroke-miterlimit="22.9256" points="741.39,220.91 806.44,227.19 806.19,248.94 740.79,242.21 "/>
  <polygon fill="none" stroke="black" stroke-width="2.36" stroke-miterlimit="22.9256" points="768.53,326.95 822.78,333.39 821.61,353.1 767.97,346.38 "/>
  <polygon fill="none" stroke="black" stroke-width="2.36" stroke-miterlimit="22.9256" points="824.52,381.75 873.57,387.58 874.12,410.41 823.91,403.05 "/>
  <polygon fill="none" stroke="black" stroke-width="2.36" stroke-miterlimit="22.9256" points="781.55,398.83 823.91,403.05 823.69,425.14 780.99,418.57 "/>
  <polygon fill="none" stroke="black" stroke-width="2.36" stroke-miterlimit="22.9256" points="823.69,425.14 873.57,434.46 872.67,456.39 822.47,448.57 "/>
  <polygon fill="none" stroke="black" stroke-width="2.36" stroke-miterlimit="22.9256" points="757.53,513.36 813.57,523.05 812.65,543.66 756.7,533.84 "/>
  <polygon fill="none" stroke="black" stroke-width="2.36" stroke-miterlimit="22.9256" points="987.97,199.69 1047.27,189.95 1046.78,213.91 988.5,223.91 "/>
  <polygon fill="none" stroke="black" stroke-width="2.36" stroke-miterlimit="22.9256" points="1046.78,213.91 1046.06,236 1100.17,224.4 1100.25,204.37 "/>
  <polygon fill="none" stroke="black" stroke-width="2.36" stroke-miterlimit="22.9256" points="988.75,248.13 1046.7,237.61 1046.4,258.06 989.27,270.27 "/>
  <polygon fill="none" stroke="black" stroke-width="2.36" stroke-miterlimit="22.9256" points="1051.98,164.95 1100.73,158.03 1101.48,179.75 1052.5,186.83 "/>
  <polygon fill="none" stroke="black" stroke-width="2.36" stroke-miterlimit="22.9256" points="1142.39,172.61 1197.76,164.07 1198.38,185.55 1142.66,195 "/>
  <polygon fill="none" stroke="black" stroke-width="2.36" stroke-miterlimit="22.9256" points="988.98,302.01 1044.74,291.36 1045.26,312.71 988.72,324.02 "/>
  <polygon fill="none" stroke="black" stroke-width="2.36" stroke-miterlimit="22.9256" points="1044.74,291.36 1098.51,279.12 1099.04,300.47 1045.26,312.71 "/>
  <polygon fill="none" stroke="black" stroke-width="2.36" stroke-miterlimit="22.9256" points="1046.75,335.76 1098.45,324.79 1098.97,346.15 1046.49,357.76 "/>
  <path fill="none" stroke="black" stroke-width="2.36" stroke-miterlimit="22.9256" d="M988.86 397.1l0.25 19.88c-57.63,19.18 -88.72,24.66 -115.54,17.48l0.55 -24.05c32.16,9.7 82.95,-2.83 114.74,-13.31z"/>
  <path fill="none" stroke="black" stroke-width="2.36" stroke-miterlimit="22.9256" d="M987.11 351.15l0.6 21.11c-58.41,16.67 -87.32,22.51 -114.14,15.32l0.6 -22.02c35.28,9.05 56.1,-1.57 112.94,-14.41z"/>
  <path fill="none" stroke="black" stroke-width="2.36" stroke-miterlimit="22.9256" d="M987.17 278.74l0.78 23.52c-66.15,14.56 -88.28,15.65 -114.34,11.24l0.56 -20.44c32.81,9.14 78.02,-4.68 113,-14.32z"/>
  <path fill="none" stroke="black" stroke-width="2.36" stroke-miterlimit="22.9256" d="M988.3 176.68l-0.33 23.01c-57.26,12.21 -85.81,12.52 -114.4,8.51l0.6 -22.01c33.41,7.79 60.73,-1.05 114.13,-9.51z"/>
  <polygon fill="none" stroke="black" stroke-width="2.36" stroke-miterlimit="22.9256" points="1047.24,380.11 1101.02,367.87 1101.54,389.22 1047.76,401.46 "/>
  <polygon fill="none" stroke="black" stroke-width="2.36" stroke-miterlimit="22.9256" points="989.11,416.98 1042.89,404.74 1044.11,426.36 989.63,438.34 "/>
  <polygon fill="none" stroke="black" stroke-width="2.36" stroke-miterlimit="22.9256" points="1044.11,426.36 1097.89,414.12 1098.41,435.47 1044.63,447.71 "/>
  <polygon fill="none" stroke="black" stroke-width="2.36" stroke-miterlimit="22.9256" points="1142.39,217.18 1197.76,208.63 1198.38,230.12 1142.66,239.57 "/>
  <polygon fill="none" stroke="black" stroke-width="2.36" stroke-miterlimit="22.9256" points="1139.94,267.49 1195.31,258.95 1195.93,280.43 1140.2,289.88 "/>
  <polygon fill="none" stroke="black" stroke-width="2.36" stroke-miterlimit="22.9256" points="1139.35,313.43 1194.68,301.76 1195.31,323.24 1139.58,332.7 "/>
  <polygon fill="none" stroke="black" stroke-width="2.36" stroke-miterlimit="22.9256" points="1139.35,357.8 1195.31,343.48 1195.62,364.65 1139.58,377.07 "/>
 </g>
</svg>
