<?xml version="1.0" encoding="UTF-8"?>
<!DOCTYPE svg PUBLIC "-//W3C//DTD SVG 1.1//EN" "http://www.w3.org/Graphics/SVG/1.1/DTD/svg11.dtd">
<!-- Creator: CorelDRAW 2018 (64 Bit Versão de avaliação) -->
<svg xmlns="http://www.w3.org/2000/svg" xml:space="preserve" width="1920px" height="1080px" version="1.1" shape-rendering="geometricPrecision" text-rendering="geometricPrecision" image-rendering="optimizeQuality" fill-rule="evenodd" clip-rule="evenodd"
viewBox="0 0 1920 1080"
 xmlns:xlink="http://www.w3.org/1999/xlink">
 <g id="Camada_x0020_1">
  <metadata id="CorelCorpID_0Corel-Layer"/>
  <rect fill="none" width="1920" height="1080"/>
  <path fill="none" stroke="black" stroke-width="2.36" stroke-miterlimit="22.9256" d="M733.29 62.54c0.88,2.65 7.24,4.72 19.53,6.12l2.09 38.29 -48.31 7.16 0 18.36c-4.12,-0.06 -8.73,0.52 -10.16,4.23 -2.16,5.59 3.72,8.28 11.07,9.57l4.82 112.5c-5.54,-1.01 -9.8,-0.47 -11.14,4.46 -1.26,4.67 3.36,7.71 11.4,9.08l4.68 173.7c-6.61,1.06 -11.17,3.1 -11.19,7.29 -0.03,4.61 3.84,7.63 11.46,9.11l4.56 164.47c-4.56,0.51 -8.65,1.69 -9.96,6.25 -1.54,5.29 3.49,8.64 9.18,11.19l6.51 154.69c-6.13,1.76 -10.41,4.55 -11.2,9.12 -0.85,4.95 4.36,8.13 13.02,10.15l-0.78 78.91 185.92 57.2c15.1,4.65 29.78,-4.24 38.82,-9.29l204.3 -113.93 3.52 -94.66c4.66,-0.72 8.78,-3.4 8.33,-8.34 -0.41,-4.61 -4.66,-7.14 -8.59,-8.85l2.6 -144.8c5.06,-1.61 10.07,-3.98 9.9,-7.22 -0.31,-5.63 -5.83,-6.91 -10.94,-8.4l6.26 -152.61c4.9,-1.08 9.22,-3.48 8.66,-7.3 -0.8,-5.45 -5.21,-6.29 -9.7,-7.03l3.12 -161.45c6.31,-0.36 11.91,-1.93 10.94,-5.41 -1.2,-4.3 -6.01,-3.97 -10.29,-4.1l4.69 -107.29c3.83,0.7 8.7,0.3 9.12,-3.39 0.6,-5.34 -5.89,-5.92 -11.85,-5.86l-0.39 -17.84 -21.36 -2.6 0.78 -36.85 16.67 -2.87c1.83,-0.31 1.35,-1.36 1.95,-3.32 -17.19,-14.42 -103.54,-13.42 -173.37,-15.1 -19.12,-0.46 -38.12,2.85 -57.36,4.82 -95.98,9.81 -212.57,16.01 -207.31,31.84z"/>
 </g>
</svg>
